<svg fill="none" height="72" viewBox="0 0 200 72" width="200" xmlns="http://www.w3.org/2000/svg"><g fill="#fcfcff"><g opacity=".336225"><ellipse cx=".114724" cy=".114712" rx=".114724" ry=".114712" transform="matrix(-.469016 -.88319 -.882705 .469927 194.803 23.4551)"/><ellipse cx=".114724" cy=".114712" rx=".114724" ry=".114712" transform="matrix(-.469016 -.88319 -.882705 .469927 191.189 18.4452)"/><ellipse cx=".114724" cy=".114712" rx=".114724" ry=".114712" transform="matrix(-.469016 -.88319 -.882705 .469927 188.558 19.8462)"/><ellipse cx=".114724" cy=".114712" opacity=".7" rx=".114724" ry=".114712" transform="matrix(-.469016 -.88319 -.882705 .469927 188.863 15.6965)"/><ellipse cx=".114724" cy=".114712" opacity=".3" rx=".114724" ry=".114712" transform="matrix(-.469016 -.88319 -.882705 .469927 192.583 22.21)"/><ellipse cx=".114724" cy=".114712" opacity=".3" rx=".114724" ry=".114712" transform="matrix(-.469016 -.88319 -.882705 .469927 193.508 19.5509)"/><ellipse cx=".114724" cy=".114712" opacity=".3" rx=".114724" ry=".114712" transform="matrix(-.469016 -.88319 -.882705 .469927 187.989 17.6355)"/></g><ellipse cx=".114726" cy=".114609" rx=".114726" ry=".114609" transform="matrix(-.00000009 1 1 .00000009 174.805 33.38)"/><ellipse cx=".114726" cy=".114609" rx=".114726" ry=".114609" transform="matrix(-.00000009 1 1 .00000009 175.646 39.4987)"/><ellipse cx=".114726" cy=".114609" rx=".114726" ry=".114609" transform="matrix(-.00000009 1 1 .00000009 178.625 39.4987)"/><ellipse cx=".114726" cy=".114609" opacity=".7" rx=".114726" ry=".114609" transform="matrix(-.00000009 1 1 .00000009 180.153 43.017)"/><ellipse cx=".114726" cy=".114609" opacity=".7" rx=".114726" ry=".114609" transform="matrix(-.00000009 1 1 .00000009 176.409 43.017)"/><ellipse cx=".114726" cy=".114609" opacity=".3" rx=".114726" ry=".114609" transform="matrix(-.00000009 1 1 .00000009 176.18 35.5215)"/><ellipse cx=".114726" cy=".114609" opacity=".3" rx=".114726" ry=".114609" transform="matrix(-.00000009 1 1 .00000009 174.117 37.4336)"/><ellipse cx=".114726" cy=".114609" opacity=".3" rx=".114726" ry=".114609" transform="matrix(-.00000009 1 1 .00000009 178.09 41.7167)"/><g opacity=".336225"><ellipse cx=".114712" cy=".114724" rx=".114712" ry=".114724" transform="matrix(-.882705 .469927 .469016 .88319 171.285 33.8281)"/><ellipse cx=".114712" cy=".114724" rx=".114712" ry=".114724" transform="matrix(-.882705 .469927 .469016 .88319 166.28 37.4453)"/><ellipse cx=".114712" cy=".114724" rx=".114712" ry=".114724" transform="matrix(-.882705 .469927 .469016 .88319 167.68 40.0802)"/><ellipse cx=".114712" cy=".114724" opacity=".7" rx=".114712" ry=".114724" transform="matrix(-.882705 .469927 .469016 .88319 165.293 43.084)"/><ellipse cx=".114712" cy=".114724" opacity=".7" rx=".114712" ry=".114724" transform="matrix(-.882705 .469927 .469016 .88319 163.535 39.7733)"/><ellipse cx=".114712" cy=".114724" opacity=".3" rx=".114712" ry=".114724" transform="matrix(-.882705 .469927 .469016 .88319 170.041 36.0502)"/><ellipse cx=".114712" cy=".114724" opacity=".3" rx=".114712" ry=".114724" transform="matrix(-.882705 .469927 .469016 .88319 167.385 35.124)"/><ellipse cx=".114712" cy=".114724" opacity=".3" rx=".114712" ry=".114724" transform="matrix(-.882705 .469927 .469016 .88319 165.472 40.649)"/></g><g opacity=".336225"><ellipse cx=".114712" cy=".114724" rx=".114712" ry=".114724" transform="matrix(.882705 -.469927 -.469016 -.88319 189.692 42.7856)"/><ellipse cx=".114712" cy=".114724" rx=".114712" ry=".114724" transform="matrix(.882705 -.469927 -.469016 -.88319 194.697 39.1686)"/><ellipse cx=".114712" cy=".114724" rx=".114712" ry=".114724" transform="matrix(.882705 -.469927 -.469016 -.88319 193.298 36.5337)"/><ellipse cx=".114712" cy=".114724" opacity=".7" rx=".114712" ry=".114724" transform="matrix(.882705 -.469927 -.469016 -.88319 195.685 33.5299)"/><ellipse cx=".114712" cy=".114724" opacity=".7" rx=".114712" ry=".114724" transform="matrix(.882705 -.469927 -.469016 -.88319 197.443 36.8405)"/><ellipse cx=".114712" cy=".114724" opacity=".3" rx=".114712" ry=".114724" transform="matrix(.882705 -.469927 -.469016 -.88319 190.937 40.5637)"/><ellipse cx=".114712" cy=".114724" opacity=".3" rx=".114712" ry=".114724" transform="matrix(.882705 -.469927 -.469016 -.88319 193.593 41.4897)"/><ellipse cx=".114712" cy=".114724" opacity=".3" rx=".114712" ry=".114724" transform="matrix(.882705 -.469927 -.469016 -.88319 195.506 35.9648)"/></g><ellipse cx=".114726" cy=".114609" rx=".114726" ry=".114609" transform="matrix(.00000009 -1 -1 -.00000009 186.173 43.2339)"/><ellipse cx=".114726" cy=".114609" rx=".114726" ry=".114609" transform="matrix(.00000009 -1 -1 -.00000009 185.332 37.1152)"/><ellipse cx=".114726" cy=".114609" rx=".114726" ry=".114609" transform="matrix(.00000009 -1 -1 -.00000009 182.353 37.1152)"/><ellipse cx=".114726" cy=".114609" opacity=".7" rx=".114726" ry=".114609" transform="matrix(.00000009 -1 -1 -.00000009 180.824 33.5969)"/><ellipse cx=".114726" cy=".114609" opacity=".7" rx=".114726" ry=".114609" transform="matrix(.00000009 -1 -1 -.00000009 184.568 33.5969)"/><ellipse cx=".114726" cy=".114609" opacity=".3" rx=".114726" ry=".114609" transform="matrix(.00000009 -1 -1 -.00000009 184.797 41.0924)"/><ellipse cx=".114726" cy=".114609" opacity=".3" rx=".114726" ry=".114609" transform="matrix(.00000009 -1 -1 -.00000009 186.86 39.1803)"/><ellipse cx=".114604" cy=".114731" rx=".114604" ry=".114731" transform="matrix(-1 -.00000009 -.00000009 1 159.722 31.0889)"/><ellipse cx=".114604" cy=".114731" opacity=".7" rx=".114604" ry=".114731" transform="matrix(-1 -.00000009 -.00000009 1 156.207 32.6187)"/><ellipse cx=".114604" cy=".114731" opacity=".7" rx=".114604" ry=".114731" transform="matrix(-1 -.00000009 -.00000009 1 156.207 28.8707)"/><ellipse cx=".114604" cy=".114731" opacity=".3" rx=".114604" ry=".114731" transform="matrix(-1 -.00000009 -.00000009 1 157.506 30.5535)"/><g opacity=".97"><ellipse cx=".090619" cy=".090556" rx=".090619" ry=".090556" transform="matrix(.138923 -.990303 .990233 .139424 182.463 35.0756)"/><ellipse cx=".090619" cy=".090556" rx=".090619" ry=".090556" transform="matrix(.138923 -.990303 .990233 .139424 183.792 30.3813)"/><ellipse cx=".090619" cy=".090556" rx=".090619" ry=".090556" transform="matrix(.138923 -.990303 .990233 .139424 186.124 30.7094)"/><ellipse cx=".090619" cy=".090556" opacity=".7" rx=".090619" ry=".090556" transform="matrix(.138923 -.990303 .990233 .139424 187.705 28.1251)"/><ellipse cx=".090619" cy=".090556" opacity=".7" rx=".090619" ry=".090556" transform="matrix(.138923 -.990303 .990233 .139424 184.776 27.713)"/><ellipse cx=".090619" cy=".090556" opacity=".3" rx=".090619" ry=".090556" transform="matrix(.138923 -.990303 .990233 .139424 183.773 33.5515)"/><ellipse cx=".090619" cy=".090556" opacity=".3" rx=".090619" ry=".090556" transform="matrix(.138923 -.990303 .990233 .139424 182.37 31.8286)"/><ellipse cx=".090619" cy=".090556" opacity=".3" rx=".090619" ry=".090556" transform="matrix(.138923 -.990303 .990233 .139424 185.949 28.9152)"/></g><g opacity=".99"><ellipse cx="199.393" cy="16.5529" rx=".079161" ry=".07908" transform="matrix(0 1 -1 0 215.9459 -182.8401)"/><ellipse cx="198.813" cy="20.7748" rx=".079161" ry=".07908" transform="matrix(0 1 -1 0 219.5878 -178.0382)"/><ellipse cx="196.757" cy="20.7748" rx=".079161" ry=".07908" transform="matrix(0 1 -1 0 217.5318 -175.9822)"/><ellipse cx="195.702" cy="23.2025" opacity=".7" rx=".079161" ry=".07908" transform="matrix(0 1 -1 0 218.9045 -172.4995)"/><ellipse cx="198.286" cy="23.2023" opacity=".7" rx=".079161" ry=".07908" transform="matrix(0 1 -1 0 221.4883 -175.0837)"/><ellipse cx="198.443" cy="18.0306" opacity=".3" rx=".079161" ry=".07908" transform="matrix(0 1 -1 0 216.4736 -180.4124)"/><ellipse cx="199.867" cy="19.3499" opacity=".3" rx=".079161" ry=".07908" transform="matrix(0 1 -1 0 219.2169 -180.5171)"/><ellipse cx="197.126" cy="22.3052" opacity=".3" rx=".079161" ry=".07908" transform="matrix(0 1 -1 0 219.4312 -174.8208)"/></g><g opacity=".98"><ellipse cx=".083686" cy=".083728" rx=".083686" ry=".083728" transform="matrix(-.965823 -.259205 .258434 -.966029 152.079 27.4091)"/><ellipse cx=".083686" cy=".083728" rx=".083686" ry=".083728" transform="matrix(-.965823 -.259205 .258434 -.966029 147.928 25.6598)"/><ellipse cx=".083686" cy=".083728" rx=".083686" ry=".083728" transform="matrix(-.965823 -.259205 .258434 -.966029 148.491 23.5564)"/><ellipse cx=".083686" cy=".083728" opacity=".7" rx=".083686" ry=".083728" transform="matrix(-.965823 -.259205 .258434 -.966029 146.302 21.813)"/><ellipse cx=".083686" cy=".083728" opacity=".7" rx=".083686" ry=".083728" transform="matrix(-.965823 -.259205 .258434 -.966029 145.594 24.4557)"/><ellipse cx=".083686" cy=".083728" opacity=".3" rx=".083686" ry=".083728" transform="matrix(-.965823 -.259205 .258434 -.966029 150.83 26.0337)"/><ellipse cx=".083686" cy=".083728" opacity=".3" rx=".083686" ry=".083728" transform="matrix(-.965823 -.259205 .258434 -.966029 149.094 27.1287)"/><ellipse cx=".083686" cy=".083728" opacity=".3" rx=".083686" ry=".083728" transform="matrix(-.965823 -.259205 .258434 -.966029 146.828 23.5149)"/></g><g opacity=".98"><ellipse cx=".116952" cy=".116969" rx=".116952" ry=".116969" transform="matrix(.882705 -.469927 .469016 .88319 188.452 31.625)"/><ellipse cx=".116952" cy=".116969" rx=".116952" ry=".116969" transform="matrix(.882705 -.469928 .469016 .88319 194.359 29.4526)"/><ellipse cx=".116952" cy=".116969" rx=".116952" ry=".116969" transform="matrix(.882705 -.469928 .469016 .88319 195.786 32.1392)"/><ellipse cx=".116952" cy=".116969" opacity=".7" rx=".116952" ry=".116969" transform="matrix(.882705 -.469927 .469016 .88319 199.684 31.8322)"/><ellipse cx=".116952" cy=".116969" opacity=".7" rx=".116952" ry=".116969" transform="matrix(.882705 -.469928 .469016 .88319 197.891 28.4568)"/><ellipse cx=".116952" cy=".116969" opacity=".3" rx=".116952" ry=".116969" transform="matrix(.882705 -.469927 .469016 .88319 191.037 31.8394)"/><ellipse cx=".116952" cy=".116969" opacity=".3" rx=".116952" ry=".116969" transform="matrix(.882705 -.469928 .469016 .88319 191.77 29.0638)"/><ellipse cx=".116952" cy=".116969" opacity=".3" rx=".116952" ry=".116969" transform="matrix(.882705 -.469928 .469016 .88319 197.525 30.5948)"/></g><ellipse cx=".107818" cy=".107756" rx=".107818" ry=".107756" transform="matrix(.190491 .981689 -.981565 .191127 177.062 19.7621)"/><ellipse cx=".107818" cy=".107756" rx=".107818" ry=".107756" transform="matrix(.190491 .981689 -.981565 .191127 177.383 25.5588)"/><ellipse cx=".107818" cy=".107756" rx=".107818" ry=".107756" transform="matrix(.190491 .981689 -.981565 .191127 174.633 26.094)"/><ellipse cx=".107818" cy=".107756" opacity=".7" rx=".107818" ry=".107756" transform="matrix(.190491 .981689 -.981565 .191127 173.854 29.6147)"/><ellipse cx=".107818" cy=".107756" opacity=".7" rx=".107818" ry=".107756" transform="matrix(.190491 .981689 -.981565 .191127 177.308 28.9425)"/><ellipse cx=".107818" cy=".107756" opacity=".3" rx=".107818" ry=".107756" transform="matrix(.190491 .981689 -.981565 .191127 176.177 21.9851)"/><ellipse cx=".107818" cy=".107756" opacity=".3" rx=".107818" ry=".107756" transform="matrix(.190491 .981689 -.981565 .191127 178.423 23.379)"/><ellipse cx=".107818" cy=".107756" opacity=".3" rx=".107818" ry=".107756" transform="matrix(.190491 .981689 -.981565 .191127 175.524 28.0446)"/><g opacity=".89"><ellipse cx=".116958" cy=".116963" rx=".116958" ry=".116963" transform="matrix(-.75436 -.65646 .655658 -.755058 167.97 29.9214)"/><ellipse cx=".116958" cy=".116963" rx=".116958" ry=".116963" transform="matrix(-.75436 -.65646 .655658 -.755058 163.827 25.1791)"/><ellipse cx=".116958" cy=".116963" rx=".116958" ry=".116963" transform="matrix(-.75436 -.65646 .655658 -.755058 165.821 22.8828)"/><ellipse cx=".116958" cy=".116963" opacity=".7" rx=".116958" ry=".116963" transform="matrix(-.75436 -.65646 .655658 -.755058 164.139 19.3508)"/><ellipse cx=".116958" cy=".116963" opacity=".7" rx=".116958" ry=".116963" transform="matrix(-.75436 -.65646 .655658 -.755058 161.633 22.236)"/><ellipse cx=".116958" cy=".116963" opacity=".3" rx=".116958" ry=".116963" transform="matrix(-.75436 -.65646 .655658 -.755058 167.243 27.4285)"/><ellipse cx=".116958" cy=".116963" opacity=".3" rx=".116958" ry=".116963" transform="matrix(-.75436 -.65646 .655658 -.755058 164.393 27.7386)"/><ellipse cx=".116958" cy=".116963" opacity=".3" rx=".116958" ry=".116963" transform="matrix(-.75436 -.65646 .655658 -.755058 163.758 21.8107)"/></g><g opacity=".84"><ellipse cx=".125018" cy=".124956" rx=".125018" ry=".124956" transform="matrix(.224596 .974452 -.974288 .225306 180.624 9.33557)"/><ellipse cx=".125018" cy=".124956" rx=".125018" ry=".124956" transform="matrix(.224596 .974452 -.974288 .225306 181.23 16.0403)"/><ellipse cx=".125018" cy=".124956" rx=".125018" ry=".124956" transform="matrix(.224596 .974452 -.974288 .225306 178.065 16.7716)"/><ellipse cx=".125018" cy=".124956" opacity=".7" rx=".125018" ry=".124956" transform="matrix(.224596 .974452 -.974288 .225306 177.305 20.8833)"/><ellipse cx=".125018" cy=".124956" opacity=".7" rx=".125018" ry=".124956" transform="matrix(.224596 .974452 -.974288 .225306 181.28 19.9644)"/><ellipse cx=".125018" cy=".124956" opacity=".3" rx=".125018" ry=".124956" transform="matrix(.224596 .974452 -.974288 .225306 179.688 11.9475)"/><ellipse cx=".125018" cy=".124956" opacity=".3" rx=".125018" ry=".124956" transform="matrix(.224596 .974452 -.974288 .225306 182.348 13.4719)"/><ellipse cx=".125018" cy=".124956" opacity=".3" rx=".125018" ry=".124956" transform="matrix(.224596 .974452 -.974288 .225306 179.177 18.9961)"/></g><g opacity=".97"><ellipse cx=".073379" cy=".073395" rx=".073379" ry=".073395" transform="matrix(.913343 -.407191 .406283 .913747 179.855 24.5686)"/><ellipse cx=".073379" cy=".073395" rx=".073379" ry=".073395" transform="matrix(.913343 -.407191 .406283 .913747 183.648 23.4678)"/><ellipse cx=".073379" cy=".073395" rx=".073379" ry=".073395" transform="matrix(.913343 -.407191 .406283 .913747 184.424 25.2118)"/><ellipse cx=".073379" cy=".073395" opacity=".7" rx=".073379" ry=".073395" transform="matrix(.913343 -.407191 .406283 .913747 186.876 25.1904)"/><ellipse cx=".073379" cy=".073395" opacity=".7" rx=".073379" ry=".073395" transform="matrix(.913343 -.407191 .406283 .913747 185.901 22.9991)"/><ellipse cx=".073379" cy=".073395" opacity=".3" rx=".073379" ry=".073395" transform="matrix(.913343 -.407191 .406283 .913747 181.465 24.816)"/><ellipse cx=".073379" cy=".073395" opacity=".3" rx=".073379" ry=".073395" transform="matrix(.913343 -.407191 .406283 .913747 182.044 23.111)"/><ellipse cx=".073379" cy=".073395" opacity=".3" rx=".073379" ry=".073395" transform="matrix(.913343 -.407191 .406283 .913747 185.58 24.3214)"/></g><g opacity=".96"><ellipse cx=".096354" cy=".096287" rx=".096354" ry=".096287" transform="matrix(.138923 -.990303 .990233 .139424 153.918 28.5608)"/><ellipse cx=".096354" cy=".096287" rx=".096354" ry=".096287" transform="matrix(.138923 -.990303 .990233 .139424 155.331 23.5695)"/><ellipse cx=".096354" cy=".096287" rx=".096354" ry=".096287" transform="matrix(.138923 -.990303 .990233 .139424 157.811 23.9182)"/><ellipse cx=".096354" cy=".096287" opacity=".7" rx=".096354" ry=".096287" transform="matrix(.138923 -.990303 .990233 .139424 159.492 21.1705)"/><ellipse cx=".096354" cy=".096287" opacity=".7" rx=".096354" ry=".096287" transform="matrix(.138923 -.990303 .990233 .139424 156.378 20.7323)"/><ellipse cx=".096354" cy=".096287" opacity=".3" rx=".096354" ry=".096287" transform="matrix(.138923 -.990303 .990233 .139424 155.312 26.9404)"/><ellipse cx=".096354" cy=".096287" opacity=".3" rx=".096354" ry=".096287" transform="matrix(.138923 -.990303 .990233 .139424 153.819 25.1084)"/><ellipse cx=".096354" cy=".096287" opacity=".3" rx=".096354" ry=".096287" transform="matrix(.138923 -.990303 .990233 .139424 157.624 22.0106)"/></g><g opacity=".336225"><ellipse cx=".114724" cy=".114712" rx=".114724" ry=".114712" transform="matrix(-.469016 -.88319 -.882705 .469927 194.803 51.6494)"/><ellipse cx=".114724" cy=".114712" rx=".114724" ry=".114712" transform="matrix(-.469016 -.88319 -.882705 .469927 191.189 46.6396)"/><ellipse cx=".114724" cy=".114712" rx=".114724" ry=".114712" transform="matrix(-.469016 -.88319 -.882705 .469927 188.558 48.0406)"/><ellipse cx=".114724" cy=".114712" opacity=".7" rx=".114724" ry=".114712" transform="matrix(-.469016 -.88319 -.882705 .469927 188.864 43.891)"/><ellipse cx=".114724" cy=".114712" opacity=".3" rx=".114724" ry=".114712" transform="matrix(-.469016 -.88319 -.882705 .469927 192.583 50.4044)"/><ellipse cx=".114724" cy=".114712" opacity=".3" rx=".114724" ry=".114712" transform="matrix(-.469016 -.88319 -.882705 .469927 193.508 47.7454)"/><ellipse cx=".114724" cy=".114712" opacity=".3" rx=".114724" ry=".114712" transform="matrix(-.469016 -.88319 -.882705 .469927 187.989 45.8298)"/></g><ellipse cx=".114726" cy=".114609" rx=".114726" ry=".114609" transform="matrix(-.00000009 1 1 .00000009 174.805 61.5745)"/><ellipse cx=".114726" cy=".114609" rx=".114726" ry=".114609" transform="matrix(-.00000009 1 1 .00000009 175.646 67.6931)"/><ellipse cx=".114726" cy=".114609" rx=".114726" ry=".114609" transform="matrix(-.00000009 1 1 .00000009 178.625 67.6931)"/><ellipse cx=".114726" cy=".114609" opacity=".7" rx=".114726" ry=".114609" transform="matrix(-.00000009 1 1 .00000009 180.153 71.2114)"/><ellipse cx=".114726" cy=".114609" opacity=".7" rx=".114726" ry=".114609" transform="matrix(-.00000009 1 1 .00000009 176.409 71.2114)"/><ellipse cx=".114726" cy=".114609" opacity=".3" rx=".114726" ry=".114609" transform="matrix(-.00000009 1 1 .00000009 176.18 63.7159)"/><ellipse cx=".114726" cy=".114609" opacity=".3" rx=".114726" ry=".114609" transform="matrix(-.00000009 1 1 .00000009 174.117 65.6281)"/><ellipse cx=".114726" cy=".114609" opacity=".3" rx=".114726" ry=".114609" transform="matrix(-.00000009 1 1 .00000009 178.09 69.9111)"/><g opacity=".336225"><ellipse cx=".114712" cy=".114724" rx=".114712" ry=".114724" transform="matrix(-.882705 .469927 .469016 .88319 171.285 62.0227)"/><ellipse cx=".114712" cy=".114724" rx=".114712" ry=".114724" transform="matrix(-.882705 .469927 .469016 .88319 166.28 65.6399)"/><ellipse cx=".114712" cy=".114724" rx=".114712" ry=".114724" transform="matrix(-.882705 .469927 .469016 .88319 167.68 68.2748)"/><ellipse cx=".114712" cy=".114724" opacity=".7" rx=".114712" ry=".114724" transform="matrix(-.882705 .469927 .469016 .88319 165.293 71.2786)"/><ellipse cx=".114712" cy=".114724" opacity=".7" rx=".114712" ry=".114724" transform="matrix(-.882705 .469927 .469016 .88319 163.535 67.9679)"/><ellipse cx=".114712" cy=".114724" opacity=".3" rx=".114712" ry=".114724" transform="matrix(-.882705 .469927 .469016 .88319 170.041 64.2448)"/><ellipse cx=".114712" cy=".114724" opacity=".3" rx=".114712" ry=".114724" transform="matrix(-.882705 .469927 .469016 .88319 167.385 63.3186)"/><ellipse cx=".114712" cy=".114724" opacity=".3" rx=".114712" ry=".114724" transform="matrix(-.882705 .469927 .469016 .88319 165.472 68.8436)"/></g><g opacity=".336225"><ellipse cx=".114712" cy=".114724" rx=".114712" ry=".114724" transform="matrix(.882705 -.469927 -.469016 -.88319 189.692 70.9802)"/><ellipse cx=".114712" cy=".114724" rx=".114712" ry=".114724" transform="matrix(.882705 -.469927 -.469016 -.88319 194.697 67.3632)"/><ellipse cx=".114712" cy=".114724" rx=".114712" ry=".114724" transform="matrix(.882705 -.469927 -.469016 -.88319 193.298 64.7283)"/><ellipse cx=".114712" cy=".114724" opacity=".7" rx=".114712" ry=".114724" transform="matrix(.882705 -.469927 -.469016 -.88319 195.685 61.7245)"/><ellipse cx=".114712" cy=".114724" opacity=".7" rx=".114712" ry=".114724" transform="matrix(.882705 -.469927 -.469016 -.88319 197.443 65.035)"/><ellipse cx=".114712" cy=".114724" opacity=".3" rx=".114712" ry=".114724" transform="matrix(.882705 -.469927 -.469016 -.88319 190.937 68.7583)"/><ellipse cx=".114712" cy=".114724" opacity=".3" rx=".114712" ry=".114724" transform="matrix(.882705 -.469927 -.469016 -.88319 193.593 69.6843)"/><ellipse cx=".114712" cy=".114724" opacity=".3" rx=".114712" ry=".114724" transform="matrix(.882705 -.469927 -.469016 -.88319 195.506 64.1594)"/></g><ellipse cx=".114726" cy=".114609" rx=".114726" ry=".114609" transform="matrix(.00000009 -1 -1 -.00000009 186.173 71.4283)"/><ellipse cx=".114726" cy=".114609" rx=".114726" ry=".114609" transform="matrix(.00000009 -1 -1 -.00000009 185.332 65.3097)"/><ellipse cx=".114726" cy=".114609" rx=".114726" ry=".114609" transform="matrix(.00000009 -1 -1 -.00000009 182.353 65.3097)"/><ellipse cx=".114726" cy=".114609" opacity=".7" rx=".114726" ry=".114609" transform="matrix(.00000009 -1 -1 -.00000009 180.824 61.7914)"/><ellipse cx=".114726" cy=".114609" opacity=".7" rx=".114726" ry=".114609" transform="matrix(.00000009 -1 -1 -.00000009 184.568 61.7914)"/><ellipse cx=".114726" cy=".114609" opacity=".3" rx=".114726" ry=".114609" transform="matrix(.00000009 -1 -1 -.00000009 184.797 69.2869)"/><ellipse cx=".114726" cy=".114609" opacity=".3" rx=".114726" ry=".114609" transform="matrix(.00000009 -1 -1 -.00000009 186.86 67.3748)"/><ellipse cx=".114604" cy=".114731" rx=".114604" ry=".114731" transform="matrix(-1 -.00000009 -.00000009 1 159.722 59.2834)"/><ellipse cx=".114604" cy=".114731" opacity=".7" rx=".114604" ry=".114731" transform="matrix(-1 -.00000009 -.00000009 1 156.207 60.8132)"/><ellipse cx=".114604" cy=".114731" opacity=".7" rx=".114604" ry=".114731" transform="matrix(-1 -.00000009 -.00000009 1 156.207 57.0653)"/><ellipse cx=".114604" cy=".114731" opacity=".3" rx=".114604" ry=".114731" transform="matrix(-1 -.00000009 -.00000009 1 157.506 58.748)"/><g opacity=".97"><ellipse cx=".090619" cy=".090556" rx=".090619" ry=".090556" transform="matrix(.138923 -.990303 .990233 .139424 182.463 63.27)"/><ellipse cx=".090619" cy=".090556" rx=".090619" ry=".090556" transform="matrix(.138923 -.990303 .990233 .139424 183.792 58.5758)"/><ellipse cx=".090619" cy=".090556" rx=".090619" ry=".090556" transform="matrix(.138923 -.990303 .990233 .139424 186.124 58.9037)"/><ellipse cx=".090619" cy=".090556" opacity=".7" rx=".090619" ry=".090556" transform="matrix(.138923 -.990303 .990233 .139424 187.705 56.3196)"/><ellipse cx=".090619" cy=".090556" opacity=".7" rx=".090619" ry=".090556" transform="matrix(.138923 -.990303 .990233 .139424 184.776 55.9075)"/><ellipse cx=".090619" cy=".090556" opacity=".3" rx=".090619" ry=".090556" transform="matrix(.138923 -.990303 .990233 .139424 183.773 61.746)"/><ellipse cx=".090619" cy=".090556" opacity=".3" rx=".090619" ry=".090556" transform="matrix(.138923 -.990303 .990233 .139424 182.37 60.0231)"/><ellipse cx=".090619" cy=".090556" opacity=".3" rx=".090619" ry=".090556" transform="matrix(.138923 -.990303 .990233 .139424 185.949 57.1096)"/></g><g opacity=".99"><ellipse cx="199.393" cy="44.7474" rx=".079161" ry=".07908" transform="matrix(0 1 -1 0 244.1404 -154.6456)"/><ellipse cx="198.813" cy="48.9693" rx=".079161" ry=".07908" transform="matrix(0 1 -1 0 247.7823 -149.8437)"/><ellipse cx="196.757" cy="48.9693" rx=".079161" ry=".07908" transform="matrix(0 1 -1 0 245.7263 -147.7877)"/><ellipse cx="195.702" cy="51.3969" opacity=".7" rx=".079161" ry=".07908" transform="matrix(0 1 -1 0 247.0989 -144.3051)"/><ellipse cx="198.286" cy="51.3968" opacity=".7" rx=".079161" ry=".07908" transform="matrix(0 1 -1 0 249.6828 -146.8892)"/><ellipse cx="198.443" cy="46.225" opacity=".3" rx=".079161" ry=".07908" transform="matrix(0 1 -1 0 244.668 -152.218)"/><ellipse cx="199.867" cy="47.5444" opacity=".3" rx=".079161" ry=".07908" transform="matrix(0 1 -1 0 247.4114 -152.3226)"/><ellipse cx="197.126" cy="50.4997" opacity=".3" rx=".079161" ry=".07908" transform="matrix(0 1 -1 0 247.6257 -146.6263)"/></g><g opacity=".98"><ellipse cx=".083686" cy=".083728" rx=".083686" ry=".083728" transform="matrix(-.965823 -.259205 .258434 -.966029 152.079 55.6035)"/><ellipse cx=".083686" cy=".083728" rx=".083686" ry=".083728" transform="matrix(-.965823 -.259205 .258434 -.966029 147.928 53.8542)"/><ellipse cx=".083686" cy=".083728" rx=".083686" ry=".083728" transform="matrix(-.965823 -.259205 .258434 -.966029 148.491 51.7509)"/><ellipse cx=".083686" cy=".083728" opacity=".7" rx=".083686" ry=".083728" transform="matrix(-.965823 -.259205 .258434 -.966029 146.302 50.0074)"/><ellipse cx=".083686" cy=".083728" opacity=".7" rx=".083686" ry=".083728" transform="matrix(-.965823 -.259205 .258434 -.966029 145.594 52.6501)"/><ellipse cx=".083686" cy=".083728" opacity=".3" rx=".083686" ry=".083728" transform="matrix(-.965823 -.259205 .258434 -.966029 150.83 54.2281)"/><ellipse cx=".083686" cy=".083728" opacity=".3" rx=".083686" ry=".083728" transform="matrix(-.965823 -.259205 .258434 -.966029 149.094 55.3231)"/><ellipse cx=".083686" cy=".083728" opacity=".3" rx=".083686" ry=".083728" transform="matrix(-.965823 -.259205 .258434 -.966029 146.828 51.7094)"/></g><g opacity=".98"><ellipse cx=".116952" cy=".116969" rx=".116952" ry=".116969" transform="matrix(.882705 -.469927 .469016 .88319 188.452 59.8196)"/><ellipse cx=".116952" cy=".116969" rx=".116952" ry=".116969" transform="matrix(.882705 -.469928 .469016 .88319 194.359 57.6472)"/><ellipse cx=".116952" cy=".116969" rx=".116952" ry=".116969" transform="matrix(.882705 -.469928 .469016 .88319 195.786 60.3337)"/><ellipse cx=".116952" cy=".116969" opacity=".7" rx=".116952" ry=".116969" transform="matrix(.882705 -.469927 .469016 .88319 199.684 60.0267)"/><ellipse cx=".116952" cy=".116969" opacity=".7" rx=".116952" ry=".116969" transform="matrix(.882705 -.469928 .469016 .88319 197.891 56.6514)"/><ellipse cx=".116952" cy=".116969" opacity=".3" rx=".116952" ry=".116969" transform="matrix(.882705 -.469927 .469016 .88319 191.037 60.0339)"/><ellipse cx=".116952" cy=".116969" opacity=".3" rx=".116952" ry=".116969" transform="matrix(.882705 -.469928 .469016 .88319 191.77 57.2584)"/><ellipse cx=".116952" cy=".116969" opacity=".3" rx=".116952" ry=".116969" transform="matrix(.882705 -.469928 .469016 .88319 197.525 58.7894)"/></g><ellipse cx=".107818" cy=".107756" rx=".107818" ry=".107756" transform="matrix(.190491 .981689 -.981565 .191127 177.062 47.9565)"/><ellipse cx=".107818" cy=".107756" rx=".107818" ry=".107756" transform="matrix(.190491 .981689 -.981565 .191127 177.383 53.7533)"/><ellipse cx=".107818" cy=".107756" rx=".107818" ry=".107756" transform="matrix(.190491 .981689 -.981565 .191127 174.633 54.2885)"/><ellipse cx=".107818" cy=".107756" opacity=".7" rx=".107818" ry=".107756" transform="matrix(.190491 .981689 -.981565 .191127 173.854 57.8092)"/><ellipse cx=".107818" cy=".107756" opacity=".7" rx=".107818" ry=".107756" transform="matrix(.190491 .981689 -.981565 .191127 177.308 57.137)"/><ellipse cx=".107818" cy=".107756" opacity=".3" rx=".107818" ry=".107756" transform="matrix(.190491 .981689 -.981565 .191127 176.177 50.1796)"/><ellipse cx=".107818" cy=".107756" opacity=".3" rx=".107818" ry=".107756" transform="matrix(.190491 .981689 -.981565 .191127 178.423 51.5735)"/><ellipse cx=".107818" cy=".107756" opacity=".3" rx=".107818" ry=".107756" transform="matrix(.190491 .981689 -.981565 .191127 175.524 56.239)"/><g opacity=".89"><ellipse cx=".116958" cy=".116963" rx=".116958" ry=".116963" transform="matrix(-.75436 -.65646 .655658 -.755058 167.97 58.1158)"/><ellipse cx=".116958" cy=".116963" rx=".116958" ry=".116963" transform="matrix(-.75436 -.65646 .655658 -.755058 163.827 53.3735)"/><ellipse cx=".116958" cy=".116963" rx=".116958" ry=".116963" transform="matrix(-.75436 -.65646 .655658 -.755058 165.821 51.0773)"/><ellipse cx=".116958" cy=".116963" opacity=".7" rx=".116958" ry=".116963" transform="matrix(-.75436 -.65646 .655658 -.755058 164.139 47.5453)"/><ellipse cx=".116958" cy=".116963" opacity=".7" rx=".116958" ry=".116963" transform="matrix(-.75436 -.65646 .655658 -.755058 161.633 50.4304)"/><ellipse cx=".116958" cy=".116963" opacity=".3" rx=".116958" ry=".116963" transform="matrix(-.75436 -.65646 .655658 -.755058 167.243 55.6229)"/><ellipse cx=".116958" cy=".116963" opacity=".3" rx=".116958" ry=".116963" transform="matrix(-.75436 -.65646 .655658 -.755058 164.393 55.9331)"/><ellipse cx=".116958" cy=".116963" opacity=".3" rx=".116958" ry=".116963" transform="matrix(-.75436 -.65646 .655658 -.755058 163.758 50.0051)"/></g><g opacity=".84"><ellipse cx=".125018" cy=".124956" rx=".125018" ry=".124956" transform="matrix(.224596 .974452 -.974288 .225306 180.624 37.53)"/><ellipse cx=".125018" cy=".124956" rx=".125018" ry=".124956" transform="matrix(.224596 .974452 -.974288 .225306 181.23 44.2347)"/><ellipse cx=".125018" cy=".124956" rx=".125018" ry=".124956" transform="matrix(.224596 .974452 -.974288 .225306 178.065 44.9661)"/><ellipse cx=".125018" cy=".124956" opacity=".7" rx=".125018" ry=".124956" transform="matrix(.224596 .974452 -.974288 .225306 177.305 49.0778)"/><ellipse cx=".125018" cy=".124956" opacity=".7" rx=".125018" ry=".124956" transform="matrix(.224596 .974452 -.974288 .225306 181.28 48.1588)"/><ellipse cx=".125018" cy=".124956" opacity=".3" rx=".125018" ry=".124956" transform="matrix(.224596 .974452 -.974288 .225306 179.688 40.142)"/><ellipse cx=".125018" cy=".124956" opacity=".3" rx=".125018" ry=".124956" transform="matrix(.224596 .974452 -.974288 .225306 182.348 41.6664)"/><ellipse cx=".125018" cy=".124956" opacity=".3" rx=".125018" ry=".124956" transform="matrix(.224596 .974452 -.974288 .225306 179.177 47.1906)"/></g><g opacity=".97"><ellipse cx=".073379" cy=".073395" rx=".073379" ry=".073395" transform="matrix(.913343 -.407191 .406283 .913747 179.855 52.7631)"/><ellipse cx=".073379" cy=".073395" rx=".073379" ry=".073395" transform="matrix(.913343 -.407191 .406283 .913747 183.648 51.6622)"/><ellipse cx=".073379" cy=".073395" rx=".073379" ry=".073395" transform="matrix(.913343 -.407191 .406283 .913747 184.424 53.4062)"/><ellipse cx=".073379" cy=".073395" opacity=".7" rx=".073379" ry=".073395" transform="matrix(.913343 -.407191 .406283 .913747 186.876 53.3849)"/><ellipse cx=".073379" cy=".073395" opacity=".7" rx=".073379" ry=".073395" transform="matrix(.913343 -.407191 .406283 .913747 185.901 51.1936)"/><ellipse cx=".073379" cy=".073395" opacity=".3" rx=".073379" ry=".073395" transform="matrix(.913343 -.407191 .406283 .913747 181.465 53.0105)"/><ellipse cx=".073379" cy=".073395" opacity=".3" rx=".073379" ry=".073395" transform="matrix(.913343 -.407191 .406283 .913747 182.044 51.3054)"/><ellipse cx=".073379" cy=".073395" opacity=".3" rx=".073379" ry=".073395" transform="matrix(.913343 -.407191 .406283 .913747 185.58 52.5159)"/></g><g opacity=".96"><ellipse cx=".096354" cy=".096287" rx=".096354" ry=".096287" transform="matrix(.138923 -.990303 .990233 .139424 153.918 56.7552)"/><ellipse cx=".096354" cy=".096287" rx=".096354" ry=".096287" transform="matrix(.138923 -.990303 .990233 .139424 155.331 51.7639)"/><ellipse cx=".096354" cy=".096287" rx=".096354" ry=".096287" transform="matrix(.138923 -.990303 .990233 .139424 157.811 52.1127)"/><ellipse cx=".096354" cy=".096287" opacity=".7" rx=".096354" ry=".096287" transform="matrix(.138923 -.990303 .990233 .139424 159.492 49.365)"/><ellipse cx=".096354" cy=".096287" opacity=".7" rx=".096354" ry=".096287" transform="matrix(.138923 -.990303 .990233 .139424 156.378 48.9268)"/><ellipse cx=".096354" cy=".096287" opacity=".3" rx=".096354" ry=".096287" transform="matrix(.138923 -.990303 .990233 .139424 155.312 55.1349)"/><ellipse cx=".096354" cy=".096287" opacity=".3" rx=".096354" ry=".096287" transform="matrix(.138923 -.990303 .990233 .139424 153.819 53.3029)"/><ellipse cx=".096354" cy=".096287" opacity=".3" rx=".096354" ry=".096287" transform="matrix(.138923 -.990303 .990233 .139424 157.624 50.2051)"/></g><g opacity=".336225"><ellipse cx=".114724" cy=".114712" rx=".114724" ry=".114712" transform="matrix(.469016 .88319 .882705 -.469928 13.8076 19.9396)"/><ellipse cx=".114724" cy=".114712" rx=".114724" ry=".114712" transform="matrix(.469016 .88319 .882705 -.469928 17.4209 24.9493)"/><ellipse cx=".114724" cy=".114712" rx=".114724" ry=".114712" transform="matrix(.469016 .88319 .882705 -.469928 20.0527 23.5483)"/><ellipse cx=".114724" cy=".114712" opacity=".7" rx=".114724" ry=".114712" transform="matrix(.469016 .88319 .882705 -.469928 19.7471 27.698)"/><ellipse cx=".114724" cy=".114712" opacity=".3" rx=".114724" ry=".114712" transform="matrix(.469016 .88319 .882705 -.469928 16.0273 21.1847)"/><ellipse cx=".114724" cy=".114712" opacity=".3" rx=".114724" ry=".114712" transform="matrix(.469016 .88319 .882705 -.469928 15.1025 23.8436)"/><ellipse cx=".114724" cy=".114712" opacity=".3" rx=".114724" ry=".114712" transform="matrix(.469016 .88319 .882705 -.469928 20.6211 25.7592)"/></g><ellipse cx=".114726" cy=".114609" rx=".114726" ry=".114609" transform="matrix(0 -1 -1 0 33.8057 10.0145)"/><ellipse cx=".114726" cy=".114609" rx=".114726" ry=".114609" transform="matrix(0 -1 -1 0 32.9648 3.89587)"/><ellipse cx=".114726" cy=".114609" rx=".114726" ry=".114609" transform="matrix(0 -1 -1 0 29.9854 3.89587)"/><ellipse cx=".114726" cy=".114609" opacity=".7" rx=".114726" ry=".114609" transform="matrix(0 -1 -1 0 28.457 .377686)"/><ellipse cx=".114726" cy=".114609" opacity=".7" rx=".114726" ry=".114609" transform="matrix(0 -1 -1 0 32.2012 .377686)"/><ellipse cx=".114726" cy=".114609" opacity=".3" rx=".114726" ry=".114609" transform="matrix(0 -1 -1 0 32.4307 7.87305)"/><ellipse cx=".114726" cy=".114609" opacity=".3" rx=".114726" ry=".114609" transform="matrix(0 -1 -1 0 34.4932 5.96094)"/><ellipse cx=".114726" cy=".114609" opacity=".3" rx=".114726" ry=".114609" transform="matrix(0 -1 -1 0 30.5205 1.67786)"/><g opacity=".336225"><ellipse cx=".114712" cy=".114724" rx=".114712" ry=".114724" transform="matrix(.882705 -.469928 -.469016 -.88319 37.3252 9.56628)"/><ellipse cx=".114712" cy=".114724" rx=".114712" ry=".114724" transform="matrix(.882705 -.469928 -.469016 -.88319 42.3301 5.9491)"/><ellipse cx=".114712" cy=".114724" rx=".114712" ry=".114724" transform="matrix(.882705 -.469928 -.469016 -.88319 40.9307 3.31421)"/><ellipse cx=".114712" cy=".114724" opacity=".7" rx=".114712" ry=".114724" transform="matrix(.882705 -.469928 -.469016 -.88319 43.3174 .310425)"/><ellipse cx=".114712" cy=".114724" opacity=".7" rx=".114712" ry=".114724" transform="matrix(.882705 -.469928 -.469016 -.88319 45.0752 3.62109)"/><ellipse cx=".114712" cy=".114724" opacity=".3" rx=".114712" ry=".114724" transform="matrix(.882705 -.469928 -.469016 -.88319 38.5693 7.34424)"/><ellipse cx=".114712" cy=".114724" opacity=".3" rx=".114712" ry=".114724" transform="matrix(.882705 -.469928 -.469016 -.88319 41.2256 8.27039)"/><ellipse cx=".114712" cy=".114724" opacity=".3" rx=".114712" ry=".114724" transform="matrix(.882705 -.469928 -.469016 -.88319 43.1387 2.74536)"/></g><g opacity=".336225"><ellipse cx=".114712" cy=".114724" rx=".114712" ry=".114724" transform="matrix(-.882705 .469928 .469016 .88319 18.918 .608765)"/><ellipse cx=".114712" cy=".114724" rx=".114712" ry=".114724" transform="matrix(-.882705 .469928 .469016 .88319 13.9131 4.22583)"/><ellipse cx=".114712" cy=".114724" rx=".114712" ry=".114724" transform="matrix(-.882705 .469928 .469016 .88319 15.3125 6.86072)"/><ellipse cx=".114712" cy=".114724" opacity=".7" rx=".114712" ry=".114724" transform="matrix(-.882705 .469928 .469016 .88319 12.9258 9.8645)"/><ellipse cx=".114712" cy=".114724" opacity=".7" rx=".114712" ry=".114724" transform="matrix(-.882705 .469928 .469016 .88319 11.167 6.55396)"/><ellipse cx=".114712" cy=".114724" opacity=".3" rx=".114712" ry=".114724" transform="matrix(-.882705 .469928 .469016 .88319 17.6738 2.83081)"/><ellipse cx=".114712" cy=".114724" opacity=".3" rx=".114712" ry=".114724" transform="matrix(-.882705 .469928 .469016 .88319 15.0176 1.90466)"/><ellipse cx=".114712" cy=".114724" opacity=".3" rx=".114712" ry=".114724" transform="matrix(-.882705 .469928 .469016 .88319 13.1045 7.42957)"/></g><ellipse cx=".114726" cy=".114609" rx=".114726" ry=".114609" transform="matrix(0 1 1 0 22.4375 .160522)"/><ellipse cx=".114726" cy=".114609" rx=".114726" ry=".114609" transform="matrix(0 1 1 0 23.2783 6.27917)"/><ellipse cx=".114726" cy=".114609" rx=".114726" ry=".114609" transform="matrix(0 1 1 0 26.2578 6.27917)"/><ellipse cx=".114726" cy=".114609" opacity=".7" rx=".114726" ry=".114609" transform="matrix(0 1 1 0 27.7861 9.79749)"/><ellipse cx=".114726" cy=".114609" opacity=".7" rx=".114726" ry=".114609" transform="matrix(0 1 1 0 24.042 9.79749)"/><ellipse cx=".114726" cy=".114609" opacity=".3" rx=".114726" ry=".114609" transform="matrix(0 1 1 0 23.8125 2.30212)"/><ellipse cx=".114726" cy=".114609" opacity=".3" rx=".114726" ry=".114609" transform="matrix(0 1 1 0 21.75 4.21411)"/><ellipse cx=".114604" cy=".114731" rx=".114604" ry=".114731" transform="matrix(1 0 0 -1 48.8887 12.3055)"/><ellipse cx=".114604" cy=".114731" opacity=".7" rx=".114604" ry=".114731" transform="matrix(1 0 0 -1 52.4033 10.7758)"/><ellipse cx=".114604" cy=".114731" opacity=".7" rx=".114604" ry=".114731" transform="matrix(1 0 0 -1 52.4033 14.5237)"/><ellipse cx=".114604" cy=".114731" opacity=".3" rx=".114604" ry=".114731" transform="matrix(1 0 0 -1 51.1045 12.8409)"/><g opacity=".97"><ellipse cx=".090619" cy=".090556" rx=".090619" ry=".090556" transform="matrix(-.138923 .990303 -.990233 -.139424 26.1475 8.31909)"/><ellipse cx=".090619" cy=".090556" rx=".090619" ry=".090556" transform="matrix(-.138923 .990303 -.990233 -.139424 24.8184 13.0133)"/><ellipse cx=".090619" cy=".090556" rx=".090619" ry=".090556" transform="matrix(-.138923 .990303 -.990233 -.139424 22.4863 12.6853)"/><ellipse cx=".090619" cy=".090556" opacity=".7" rx=".090619" ry=".090556" transform="matrix(-.138923 .990303 -.990233 -.139424 20.9053 15.2695)"/><ellipse cx=".090619" cy=".090556" opacity=".7" rx=".090619" ry=".090556" transform="matrix(-.138923 .990303 -.990233 -.139424 23.834 15.6815)"/><ellipse cx=".090619" cy=".090556" opacity=".3" rx=".090619" ry=".090556" transform="matrix(-.138923 .990303 -.990233 -.139424 24.8369 9.84302)"/><ellipse cx=".090619" cy=".090556" opacity=".3" rx=".090619" ry=".090556" transform="matrix(-.138923 .990303 -.990233 -.139424 26.2402 11.5659)"/><ellipse cx=".090619" cy=".090556" opacity=".3" rx=".090619" ry=".090556" transform="matrix(-.138923 .990303 -.990233 -.139424 22.6611 14.4794)"/></g><g opacity=".99"><ellipse cx="9.21775" cy="26.8416" rx=".079161" ry=".07908" transform="matrix(0 -1 1 0 -17.62385 36.05935)"/><ellipse cx="9.79783" cy="22.6197" rx=".079161" ry=".07908" transform="matrix(0 -1 1 0 -12.82187 32.41753)"/><ellipse cx="11.8535" cy="22.6197" rx=".079161" ry=".07908" transform="matrix(0 -1 1 0 -10.7662 34.4732)"/><ellipse cx="12.9082" cy="20.1921" opacity=".7" rx=".079161" ry=".07908" transform="matrix(0 -1 1 0 -7.2839 33.1003)"/><ellipse cx="10.3252" cy="20.1921" opacity=".7" rx=".079161" ry=".07908" transform="matrix(0 -1 1 0 -9.8669 30.5173)"/><ellipse cx="10.167" cy="25.364" opacity=".3" rx=".079161" ry=".07908" transform="matrix(0 -1 1 0 -15.197 35.531)"/><ellipse cx="8.74314" cy="24.0446" opacity=".3" rx=".079161" ry=".07908" transform="matrix(0 -1 1 0 -15.30146 32.78774)"/><ellipse cx="11.4844" cy="21.0893" opacity=".3" rx=".079161" ry=".07908" transform="matrix(0 -1 1 0 -9.6049 32.5737)"/></g><g opacity=".98"><ellipse cx=".083686" cy=".083728" rx=".083686" ry=".083728" transform="matrix(.965823 .259205 -.258434 .966029 56.5312 15.9855)"/><ellipse cx=".083686" cy=".083728" rx=".083686" ry=".083728" transform="matrix(.965823 .259205 -.258434 .966029 60.6826 17.7347)"/><ellipse cx=".083686" cy=".083728" rx=".083686" ry=".083728" transform="matrix(.965823 .259205 -.258434 .966029 60.1191 19.8381)"/><ellipse cx=".083686" cy=".083728" opacity=".7" rx=".083686" ry=".083728" transform="matrix(.965823 .259205 -.258434 .966029 62.3086 21.5815)"/><ellipse cx=".083686" cy=".083728" opacity=".7" rx=".083686" ry=".083728" transform="matrix(.965823 .259205 -.258434 .966029 63.0166 18.9388)"/><ellipse cx=".083686" cy=".083728" opacity=".3" rx=".083686" ry=".083728" transform="matrix(.965823 .259205 -.258434 .966029 57.7803 17.3608)"/><ellipse cx=".083686" cy=".083728" opacity=".3" rx=".083686" ry=".083728" transform="matrix(.965823 .259205 -.258434 .966029 59.5166 16.2659)"/><ellipse cx=".083686" cy=".083728" opacity=".3" rx=".083686" ry=".083728" transform="matrix(.965823 .259205 -.258434 .966029 61.7822 19.8796)"/></g><g opacity=".98"><ellipse cx=".116952" cy=".116969" rx=".116952" ry=".116969" transform="matrix(-.882705 .469928 -.469016 -.88319 20.1592 11.7694)"/><ellipse cx=".116952" cy=".116969" rx=".116952" ry=".116969" transform="matrix(-.882705 .469928 -.469016 -.88319 14.252 13.9418)"/><ellipse cx=".116952" cy=".116969" rx=".116952" ry=".116969" transform="matrix(-.882705 .469928 -.469016 -.88319 12.8252 11.2552)"/><ellipse cx=".116952" cy=".116969" opacity=".7" rx=".116952" ry=".116969" transform="matrix(-.882705 .469928 -.469016 -.88319 8.92773 11.5623)"/><ellipse cx=".116952" cy=".116969" opacity=".7" rx=".116952" ry=".116969" transform="matrix(-.882705 .469928 -.469016 -.88319 10.7207 14.9376)"/><ellipse cx=".116952" cy=".116969" opacity=".3" rx=".116952" ry=".116969" transform="matrix(-.882705 .469928 -.469016 -.88319 17.5742 11.5551)"/><ellipse cx=".116952" cy=".116969" opacity=".3" rx=".116952" ry=".116969" transform="matrix(-.882705 .469928 -.469016 -.88319 16.8418 14.3306)"/><ellipse cx=".116952" cy=".116969" opacity=".3" rx=".116952" ry=".116969" transform="matrix(-.882705 .469928 -.469016 -.88319 11.0859 12.7996)"/></g><ellipse cx=".107818" cy=".107756" rx=".107818" ry=".107756" transform="matrix(-.190491 -.981689 .981565 -.191127 31.5488 23.6326)"/><ellipse cx=".107818" cy=".107756" rx=".107818" ry=".107756" transform="matrix(-.190491 -.981689 .981565 -.191127 31.2275 17.8358)"/><ellipse cx=".107818" cy=".107756" rx=".107818" ry=".107756" transform="matrix(-.190491 -.981689 .981565 -.191127 33.9775 17.3007)"/><ellipse cx=".107818" cy=".107756" opacity=".7" rx=".107818" ry=".107756" transform="matrix(-.190491 -.981689 .981565 -.191127 34.7568 13.7799)"/><ellipse cx=".107818" cy=".107756" opacity=".7" rx=".107818" ry=".107756" transform="matrix(-.190491 -.981689 .981565 -.191127 31.3027 14.4521)"/><ellipse cx=".107818" cy=".107756" opacity=".3" rx=".107818" ry=".107756" transform="matrix(-.190491 -.981689 .981565 -.191127 32.4336 21.4095)"/><ellipse cx=".107818" cy=".107756" opacity=".3" rx=".107818" ry=".107756" transform="matrix(-.190491 -.981689 .981565 -.191127 30.1875 20.0156)"/><ellipse cx=".107818" cy=".107756" opacity=".3" rx=".107818" ry=".107756" transform="matrix(-.190491 -.981689 .981565 -.191127 33.0859 15.3501)"/><g opacity=".89"><ellipse cx=".116958" cy=".116963" rx=".116958" ry=".116963" transform="matrix(.754361 .65646 -.655658 .755058 40.6416 13.473)"/><ellipse cx=".116958" cy=".116963" rx=".116958" ry=".116963" transform="matrix(.754361 .65646 -.655658 .755058 44.7842 18.2153)"/><ellipse cx=".116958" cy=".116963" rx=".116958" ry=".116963" transform="matrix(.754361 .65646 -.655658 .755058 42.79 20.5116)"/><ellipse cx=".116958" cy=".116963" opacity=".7" rx=".116958" ry=".116963" transform="matrix(.754361 .65646 -.655658 .755058 44.4727 24.0436)"/><ellipse cx=".116958" cy=".116963" opacity=".7" rx=".116958" ry=".116963" transform="matrix(.754361 .65646 -.655658 .755058 46.9785 21.1584)"/><ellipse cx=".116958" cy=".116963" opacity=".3" rx=".116958" ry=".116963" transform="matrix(.754361 .65646 -.655658 .755058 41.3682 15.9659)"/><ellipse cx=".116958" cy=".116963" opacity=".3" rx=".116958" ry=".116963" transform="matrix(.754361 .65646 -.655658 .755058 44.2188 15.6558)"/><ellipse cx=".116958" cy=".116963" opacity=".3" rx=".116958" ry=".116963" transform="matrix(.754361 .65646 -.655658 .755058 44.8535 21.5837)"/></g><g opacity=".84"><ellipse cx=".125018" cy=".124956" rx=".125018" ry=".124956" transform="matrix(-.224597 -.974452 .974288 -.225306 27.9863 34.059)"/><ellipse cx=".125018" cy=".124956" rx=".125018" ry=".124956" transform="matrix(-.224597 -.974452 .974288 -.225306 27.3799 27.3544)"/><ellipse cx=".125018" cy=".124956" rx=".125018" ry=".124956" transform="matrix(-.224597 -.974452 .974288 -.225306 30.5449 26.6229)"/><ellipse cx=".125018" cy=".124956" opacity=".7" rx=".125018" ry=".124956" transform="matrix(-.224597 -.974452 .974288 -.225306 31.3057 22.5112)"/><ellipse cx=".125018" cy=".124956" opacity=".7" rx=".125018" ry=".124956" transform="matrix(-.224597 -.974452 .974288 -.225306 27.3301 23.4302)"/><ellipse cx=".125018" cy=".124956" opacity=".3" rx=".125018" ry=".124956" transform="matrix(-.224597 -.974452 .974288 -.225306 28.9219 31.447)"/><ellipse cx=".125018" cy=".124956" opacity=".3" rx=".125018" ry=".124956" transform="matrix(-.224597 -.974452 .974288 -.225306 26.2627 29.9226)"/><ellipse cx=".125018" cy=".124956" opacity=".3" rx=".125018" ry=".124956" transform="matrix(-.224597 -.974452 .974288 -.225306 29.4336 24.3984)"/></g><g opacity=".97"><ellipse cx=".073379" cy=".073395" rx=".073379" ry=".073395" transform="matrix(-.913343 .407191 -.406283 -.913747 28.7549 18.8259)"/><ellipse cx=".073379" cy=".073395" rx=".073379" ry=".073395" transform="matrix(-.913343 .407191 -.406283 -.913747 24.9619 19.9268)"/><ellipse cx=".073379" cy=".073395" rx=".073379" ry=".073395" transform="matrix(-.913343 .407191 -.406283 -.913747 24.1865 18.1827)"/><ellipse cx=".073379" cy=".073395" opacity=".7" rx=".073379" ry=".073395" transform="matrix(-.913343 .407191 -.406283 -.913747 21.7344 18.2041)"/><ellipse cx=".073379" cy=".073395" opacity=".7" rx=".073379" ry=".073395" transform="matrix(-.913343 .407191 -.406283 -.913747 22.709 20.3954)"/><ellipse cx=".073379" cy=".073395" opacity=".3" rx=".073379" ry=".073395" transform="matrix(-.913343 .407191 -.406283 -.913747 27.1455 18.5785)"/><ellipse cx=".073379" cy=".073395" opacity=".3" rx=".073379" ry=".073395" transform="matrix(-.913343 .407191 -.406283 -.913747 26.5664 20.2836)"/><ellipse cx=".073379" cy=".073395" opacity=".3" rx=".073379" ry=".073395" transform="matrix(-.913343 .407191 -.406283 -.913747 23.0303 19.0731)"/></g><g opacity=".96"><ellipse cx=".096354" cy=".096287" rx=".096354" ry=".096287" transform="matrix(-.138923 .990303 -.990233 -.139424 54.6924 14.8336)"/><ellipse cx=".096354" cy=".096287" rx=".096354" ry=".096287" transform="matrix(-.138923 .990303 -.990233 -.139424 53.2793 19.8248)"/><ellipse cx=".096354" cy=".096287" rx=".096354" ry=".096287" transform="matrix(-.138923 .990303 -.990233 -.139424 50.7998 19.4762)"/><ellipse cx=".096354" cy=".096287" opacity=".7" rx=".096354" ry=".096287" transform="matrix(-.138923 .990303 -.990233 -.139424 49.1182 22.2239)"/><ellipse cx=".096354" cy=".096287" opacity=".7" rx=".096354" ry=".096287" transform="matrix(-.138923 .990303 -.990233 -.139424 52.2324 22.6621)"/><ellipse cx=".096354" cy=".096287" opacity=".3" rx=".096354" ry=".096287" transform="matrix(-.138923 .990303 -.990233 -.139424 53.2988 16.454)"/><ellipse cx=".096354" cy=".096287" opacity=".3" rx=".096354" ry=".096287" transform="matrix(-.138923 .990303 -.990233 -.139424 54.791 18.286)"/><ellipse cx=".096354" cy=".096287" opacity=".3" rx=".096354" ry=".096287" transform="matrix(-.138923 .990303 -.990233 -.139424 50.9863 21.3838)"/></g><g opacity=".336225"><ellipse cx=".114724" cy=".114712" rx=".114724" ry=".114712" transform="matrix(-.469016 -.88319 -.882705 .469927 49.8027 39.5663)"/><ellipse cx=".114724" cy=".114712" rx=".114724" ry=".114712" transform="matrix(-.469016 -.88319 -.882705 .469927 46.1895 34.5565)"/><ellipse cx=".114724" cy=".114712" rx=".114724" ry=".114712" transform="matrix(-.469016 -.88319 -.882705 .469927 43.5566 35.9575)"/><ellipse cx=".114724" cy=".114712" opacity=".7" rx=".114724" ry=".114712" transform="matrix(-.469016 -.88319 -.882705 .469927 43.8633 31.8079)"/><ellipse cx=".114724" cy=".114712" opacity=".3" rx=".114724" ry=".114712" transform="matrix(-.469016 -.88319 -.882705 .469927 47.583 38.3212)"/><ellipse cx=".114724" cy=".114712" opacity=".3" rx=".114724" ry=".114712" transform="matrix(-.469016 -.88319 -.882705 .469927 48.5078 35.6622)"/><ellipse cx=".114724" cy=".114712" opacity=".3" rx=".114724" ry=".114712" transform="matrix(-.469016 -.88319 -.882705 .469927 42.9893 33.7467)"/></g><ellipse cx=".114726" cy=".114609" rx=".114726" ry=".114609" transform="matrix(-.00000009 1 1 .00000009 29.8047 49.4912)"/><ellipse cx=".114726" cy=".114609" rx=".114726" ry=".114609" transform="matrix(-.00000009 1 1 .00000009 30.6455 55.61)"/><ellipse cx=".114726" cy=".114609" rx=".114726" ry=".114609" transform="matrix(-.00000009 1 1 .00000009 33.625 55.61)"/><ellipse cx=".114726" cy=".114609" opacity=".7" rx=".114726" ry=".114609" transform="matrix(-.00000009 1 1 .00000009 35.1533 59.1282)"/><ellipse cx=".114726" cy=".114609" opacity=".7" rx=".114726" ry=".114609" transform="matrix(-.00000009 1 1 .00000009 31.4092 59.1282)"/><ellipse cx=".114726" cy=".114609" opacity=".3" rx=".114726" ry=".114609" transform="matrix(-.00000009 1 1 .00000009 31.1797 51.6328)"/><ellipse cx=".114726" cy=".114609" opacity=".3" rx=".114726" ry=".114609" transform="matrix(-.00000009 1 1 .00000009 29.1172 53.5449)"/><ellipse cx=".114726" cy=".114609" opacity=".3" rx=".114726" ry=".114609" transform="matrix(-.00000009 1 1 .00000009 33.0898 57.828)"/><g opacity=".336225"><ellipse cx=".114712" cy=".114724" rx=".114712" ry=".114724" transform="matrix(-.882705 .469927 .469016 .88319 26.2852 49.9393)"/><ellipse cx=".114712" cy=".114724" rx=".114712" ry=".114724" transform="matrix(-.882705 .469927 .469016 .88319 21.2803 53.5565)"/><ellipse cx=".114712" cy=".114724" rx=".114712" ry=".114724" transform="matrix(-.882705 .469927 .469016 .88319 22.6797 56.1914)"/><ellipse cx=".114712" cy=".114724" opacity=".7" rx=".114712" ry=".114724" transform="matrix(-.882705 .469927 .469016 .88319 20.293 59.1952)"/><ellipse cx=".114712" cy=".114724" opacity=".7" rx=".114712" ry=".114724" transform="matrix(-.882705 .469927 .469016 .88319 18.5352 55.8845)"/><ellipse cx=".114712" cy=".114724" opacity=".3" rx=".114712" ry=".114724" transform="matrix(-.882705 .469927 .469016 .88319 25.041 52.1614)"/><ellipse cx=".114712" cy=".114724" opacity=".3" rx=".114712" ry=".114724" transform="matrix(-.882705 .469927 .469016 .88319 22.3848 51.2352)"/><ellipse cx=".114712" cy=".114724" opacity=".3" rx=".114712" ry=".114724" transform="matrix(-.882705 .469927 .469016 .88319 20.4717 56.7603)"/></g><g opacity=".336225"><ellipse cx=".114712" cy=".114724" rx=".114712" ry=".114724" transform="matrix(.882705 -.469927 -.469016 -.88319 44.6924 58.8967)"/><ellipse cx=".114712" cy=".114724" rx=".114712" ry=".114724" transform="matrix(.882705 -.469927 -.469016 -.88319 49.6973 55.2797)"/><ellipse cx=".114712" cy=".114724" rx=".114712" ry=".114724" transform="matrix(.882705 -.469927 -.469016 -.88319 48.2979 52.6448)"/><ellipse cx=".114712" cy=".114724" opacity=".7" rx=".114712" ry=".114724" transform="matrix(.882705 -.469927 -.469016 -.88319 50.6846 49.6411)"/><ellipse cx=".114712" cy=".114724" opacity=".7" rx=".114712" ry=".114724" transform="matrix(.882705 -.469927 -.469016 -.88319 52.4434 52.9515)"/><ellipse cx=".114712" cy=".114724" opacity=".3" rx=".114712" ry=".114724" transform="matrix(.882705 -.469927 -.469016 -.88319 45.9365 56.6748)"/><ellipse cx=".114712" cy=".114724" opacity=".3" rx=".114712" ry=".114724" transform="matrix(.882705 -.469927 -.469016 -.88319 48.5928 57.6008)"/><ellipse cx=".114712" cy=".114724" opacity=".3" rx=".114712" ry=".114724" transform="matrix(.882705 -.469927 -.469016 -.88319 50.5059 52.0759)"/></g><ellipse cx=".114726" cy=".114609" rx=".114726" ry=".114609" transform="matrix(.00000009 -1 -1 -.00000009 41.1729 59.3451)"/><ellipse cx=".114726" cy=".114609" rx=".114726" ry=".114609" transform="matrix(.00000009 -1 -1 -.00000009 40.332 53.2264)"/><ellipse cx=".114726" cy=".114609" rx=".114726" ry=".114609" transform="matrix(.00000009 -1 -1 -.00000009 37.3525 53.2264)"/><ellipse cx=".114726" cy=".114609" opacity=".7" rx=".114726" ry=".114609" transform="matrix(.00000009 -1 -1 -.00000009 35.8242 49.7081)"/><ellipse cx=".114726" cy=".114609" opacity=".7" rx=".114726" ry=".114609" transform="matrix(.00000009 -1 -1 -.00000009 39.5684 49.7083)"/><ellipse cx=".114726" cy=".114609" opacity=".3" rx=".114726" ry=".114609" transform="matrix(.00000009 -1 -1 -.00000009 39.7969 57.2036)"/><ellipse cx=".114726" cy=".114609" opacity=".3" rx=".114726" ry=".114609" transform="matrix(.00000009 -1 -1 -.00000009 41.8604 55.2915)"/><ellipse cx=".114604" cy=".114731" rx=".114604" ry=".114731" transform="matrix(-1 -.00000009 -.00000009 1 14.7217 47.2001)"/><ellipse cx=".114604" cy=".114731" opacity=".7" rx=".114604" ry=".114731" transform="matrix(-1 -.00000009 -.00000009 1 11.207 48.7297)"/><ellipse cx=".114604" cy=".114731" opacity=".7" rx=".114604" ry=".114731" transform="matrix(-1 -.00000009 -.00000009 1 11.207 44.9819)"/><ellipse cx=".114604" cy=".114731" opacity=".3" rx=".114604" ry=".114731" transform="matrix(-1 -.00000009 -.00000009 1 12.5059 46.6647)"/><g opacity=".97"><ellipse cx=".090619" cy=".090556" rx=".090619" ry=".090556" transform="matrix(.138923 -.990303 .990233 .139424 37.4629 51.1866)"/><ellipse cx=".090619" cy=".090556" rx=".090619" ry=".090556" transform="matrix(.138923 -.990303 .990233 .139424 38.792 46.4924)"/><ellipse cx=".090619" cy=".090556" rx=".090619" ry=".090556" transform="matrix(.138923 -.990303 .990233 .139424 41.124 46.8204)"/><ellipse cx=".090619" cy=".090556" opacity=".7" rx=".090619" ry=".090556" transform="matrix(.138923 -.990303 .990233 .139424 42.7051 44.2362)"/><ellipse cx=".090619" cy=".090556" opacity=".7" rx=".090619" ry=".090556" transform="matrix(.138923 -.990303 .990233 .139424 39.7764 43.8241)"/><ellipse cx=".090619" cy=".090556" opacity=".3" rx=".090619" ry=".090556" transform="matrix(.138923 -.990303 .990233 .139424 38.7734 49.6627)"/><ellipse cx=".090619" cy=".090556" opacity=".3" rx=".090619" ry=".090556" transform="matrix(.138923 -.990303 .990233 .139424 37.3701 47.9397)"/><ellipse cx=".090619" cy=".090556" opacity=".3" rx=".090619" ry=".090556" transform="matrix(.138923 -.990303 .990233 .139424 40.9492 45.0262)"/></g><g opacity=".99"><ellipse cx="54.3926" cy="32.6639" rx=".079161" ry=".07908" transform="matrix(0 1 -1 0 87.0565 -21.7287)"/><ellipse cx="53.8125" cy="36.8858" rx=".079161" ry=".07908" transform="matrix(0 1 -1 0 90.6983 -16.9267)"/><ellipse cx="51.7569" cy="36.8858" rx=".079161" ry=".07908" transform="matrix(0 1 -1 0 88.6427 -14.8711)"/><ellipse cx="50.7022" cy="39.3134" opacity=".7" rx=".079161" ry=".07908" transform="matrix(0 1 -1 0 90.0156 -11.3888)"/><ellipse cx="53.2862" cy="39.3134" opacity=".7" rx=".079161" ry=".07908" transform="matrix(0 1 -1 0 92.5996 -13.9728)"/><ellipse cx="53.4434" cy="34.1415" opacity=".3" rx=".079161" ry=".07908" transform="matrix(0 1 -1 0 87.5849 -19.3019)"/><ellipse cx="54.8672" cy="35.4609" opacity=".3" rx=".079161" ry=".07908" transform="matrix(0 1 -1 0 90.3281 -19.4063)"/><ellipse cx="52.126" cy="38.4162" opacity=".3" rx=".079161" ry=".07908" transform="matrix(0 1 -1 0 90.5422 -13.7098)"/></g><g opacity=".98"><ellipse cx=".083686" cy=".083728" rx=".083686" ry=".083728" transform="matrix(-.965823 -.259205 .258434 -.966029 7.0791 43.5203)"/><ellipse cx=".083686" cy=".083728" rx=".083686" ry=".083728" transform="matrix(-.965823 -.259205 .258434 -.966029 2.92773 41.771)"/><ellipse cx=".083686" cy=".083728" rx=".083686" ry=".083728" transform="matrix(-.965823 -.259205 .258434 -.966029 3.49121 39.6676)"/><ellipse cx=".083686" cy=".083728" opacity=".7" rx=".083686" ry=".083728" transform="matrix(-.965823 -.259205 .258434 -.966029 1.30176 37.9242)"/><ellipse cx=".083686" cy=".083728" opacity=".7" rx=".083686" ry=".083728" transform="matrix(-.965823 -.259205 .258434 -.966029 .59375 40.5669)"/><ellipse cx=".083686" cy=".083728" opacity=".3" rx=".083686" ry=".083728" transform="matrix(-.965823 -.259205 .258434 -.966029 5.83008 42.1449)"/><ellipse cx=".083686" cy=".083728" opacity=".3" rx=".083686" ry=".083728" transform="matrix(-.965823 -.259205 .258434 -.966029 4.09375 43.2399)"/><ellipse cx=".083686" cy=".083728" opacity=".3" rx=".083686" ry=".083728" transform="matrix(-.965823 -.259205 .258434 -.966029 1.82812 39.6261)"/></g><g opacity=".98"><ellipse cx=".116952" cy=".116969" rx=".116952" ry=".116969" transform="matrix(.882705 -.469927 .469016 .88319 43.4521 47.7363)"/><ellipse cx=".116952" cy=".116969" rx=".116952" ry=".116969" transform="matrix(.882705 -.469927 .469016 .88319 49.3594 45.564)"/><ellipse cx=".116952" cy=".116969" rx=".116952" ry=".116969" transform="matrix(.882705 -.469927 .469016 .88319 50.7861 48.2505)"/><ellipse cx=".116952" cy=".116969" opacity=".7" rx=".116952" ry=".116969" transform="matrix(.882705 -.469927 .469016 .88319 54.6836 47.9435)"/><ellipse cx=".116952" cy=".116969" opacity=".7" rx=".116952" ry=".116969" transform="matrix(.882705 -.469927 .469016 .88319 52.8906 44.5681)"/><ellipse cx=".116952" cy=".116969" opacity=".3" rx=".116952" ry=".116969" transform="matrix(.882705 -.469927 .469016 .88319 46.0371 47.9507)"/><ellipse cx=".116952" cy=".116969" opacity=".3" rx=".116952" ry=".116969" transform="matrix(.882705 -.469927 .469016 .88319 46.7695 45.1752)"/><ellipse cx=".116952" cy=".116969" opacity=".3" rx=".116952" ry=".116969" transform="matrix(.882705 -.469927 .469016 .88319 52.5254 46.7062)"/></g><ellipse cx=".107818" cy=".107756" rx=".107818" ry=".107756" transform="matrix(.190491 .981689 -.981565 .191127 32.0615 35.8732)"/><ellipse cx=".107818" cy=".107756" rx=".107818" ry=".107756" transform="matrix(.190491 .981689 -.981565 .191127 32.3828 41.6699)"/><ellipse cx=".107818" cy=".107756" rx=".107818" ry=".107756" transform="matrix(.190491 .981689 -.981565 .191127 29.6328 42.2051)"/><ellipse cx=".107818" cy=".107756" opacity=".7" rx=".107818" ry=".107756" transform="matrix(.190491 .981689 -.981565 .191127 28.8535 45.7258)"/><ellipse cx=".107818" cy=".107756" opacity=".7" rx=".107818" ry=".107756" transform="matrix(.190491 .981689 -.981565 .191127 32.3076 45.0536)"/><ellipse cx=".107818" cy=".107756" opacity=".3" rx=".107818" ry=".107756" transform="matrix(.190491 .981689 -.981565 .191127 31.1768 38.0962)"/><ellipse cx=".107818" cy=".107756" opacity=".3" rx=".107818" ry=".107756" transform="matrix(.190491 .981689 -.981565 .191127 33.4229 39.4901)"/><ellipse cx=".107818" cy=".107756" opacity=".3" rx=".107818" ry=".107756" transform="matrix(.190491 .981689 -.981565 .191127 30.5244 44.1556)"/><g opacity=".89"><ellipse cx=".116958" cy=".116963" rx=".116958" ry=".116963" transform="matrix(-.75436 -.65646 .655658 -.755058 22.9697 46.0326)"/><ellipse cx=".116958" cy=".116963" rx=".116958" ry=".116963" transform="matrix(-.75436 -.65646 .655658 -.755058 18.8271 41.2903)"/><ellipse cx=".116958" cy=".116963" rx=".116958" ry=".116963" transform="matrix(-.75436 -.65646 .655658 -.755058 20.8213 38.994)"/><ellipse cx=".116958" cy=".116963" opacity=".7" rx=".116958" ry=".116963" transform="matrix(-.75436 -.65646 .655658 -.755058 19.1387 35.462)"/><ellipse cx=".116958" cy=".116963" opacity=".7" rx=".116958" ry=".116963" transform="matrix(-.75436 -.65646 .655658 -.755058 16.6328 38.3472)"/><ellipse cx=".116958" cy=".116963" opacity=".3" rx=".116958" ry=".116963" transform="matrix(-.75436 -.65646 .655658 -.755058 22.2432 43.5397)"/><ellipse cx=".116958" cy=".116963" opacity=".3" rx=".116958" ry=".116963" transform="matrix(-.75436 -.65646 .655658 -.755058 19.3926 43.8499)"/><ellipse cx=".116958" cy=".116963" opacity=".3" rx=".116958" ry=".116963" transform="matrix(-.75436 -.65646 .655658 -.755058 18.7578 37.9219)"/></g><g opacity=".84"><ellipse cx=".125018" cy=".124956" rx=".125018" ry=".124956" transform="matrix(.224596 .974452 -.974288 .225306 35.624 25.4467)"/><ellipse cx=".125018" cy=".124956" rx=".125018" ry=".124956" transform="matrix(.224596 .974452 -.974288 .225306 36.2305 32.1514)"/><ellipse cx=".125018" cy=".124956" rx=".125018" ry=".124956" transform="matrix(.224596 .974452 -.974288 .225306 33.0654 32.8827)"/><ellipse cx=".125018" cy=".124956" opacity=".7" rx=".125018" ry=".124956" transform="matrix(.224596 .974452 -.974288 .225306 32.3047 36.9944)"/><ellipse cx=".125018" cy=".124956" opacity=".7" rx=".125018" ry=".124956" transform="matrix(.224596 .974452 -.974288 .225306 36.2803 36.0754)"/><ellipse cx=".125018" cy=".124956" opacity=".3" rx=".125018" ry=".124956" transform="matrix(.224596 .974452 -.974288 .225306 34.6885 28.0586)"/><ellipse cx=".125018" cy=".124956" opacity=".3" rx=".125018" ry=".124956" transform="matrix(.224596 .974452 -.974288 .225306 37.3477 29.583)"/><ellipse cx=".125018" cy=".124956" opacity=".3" rx=".125018" ry=".124956" transform="matrix(.224596 .974452 -.974288 .225306 34.1768 35.1072)"/></g><g opacity=".97"><ellipse cx=".073379" cy=".073395" rx=".073379" ry=".073395" transform="matrix(.913343 -.407191 .406283 .913747 34.8555 40.6797)"/><ellipse cx=".073379" cy=".073395" rx=".073379" ry=".073395" transform="matrix(.913343 -.407191 .406283 .913747 38.6484 39.5789)"/><ellipse cx=".073379" cy=".073395" rx=".073379" ry=".073395" transform="matrix(.913343 -.407191 .406283 .913747 39.4238 41.3229)"/><ellipse cx=".073379" cy=".073395" opacity=".7" rx=".073379" ry=".073395" transform="matrix(.913343 -.407191 .406283 .913747 41.876 41.3015)"/><ellipse cx=".073379" cy=".073395" opacity=".7" rx=".073379" ry=".073395" transform="matrix(.913343 -.407191 .406283 .913747 40.9014 39.1102)"/><ellipse cx=".073379" cy=".073395" opacity=".3" rx=".073379" ry=".073395" transform="matrix(.913343 -.407191 .406283 .913747 36.4648 40.9271)"/><ellipse cx=".073379" cy=".073395" opacity=".3" rx=".073379" ry=".073395" transform="matrix(.913343 -.407191 .406283 .913747 37.0439 39.222)"/><ellipse cx=".073379" cy=".073395" opacity=".3" rx=".073379" ry=".073395" transform="matrix(.913343 -.407191 .406283 .913747 40.5801 40.4325)"/></g><g opacity=".96"><ellipse cx=".096354" cy=".096287" rx=".096354" ry=".096287" transform="matrix(.138923 -.990303 .990233 .139424 8.91797 44.672)"/><ellipse cx=".096354" cy=".096287" rx=".096354" ry=".096287" transform="matrix(.138923 -.990303 .990233 .139424 10.332 39.6808)"/><ellipse cx=".096354" cy=".096287" rx=".096354" ry=".096287" transform="matrix(.138923 -.990303 .990233 .139424 12.8105 40.0294)"/><ellipse cx=".096354" cy=".096287" opacity=".7" rx=".096354" ry=".096287" transform="matrix(.138923 -.990303 .990233 .139424 14.4922 37.2817)"/><ellipse cx=".096354" cy=".096287" opacity=".7" rx=".096354" ry=".096287" transform="matrix(.138923 -.990303 .990233 .139424 11.3779 36.8435)"/><ellipse cx=".096354" cy=".096287" opacity=".3" rx=".096354" ry=".096287" transform="matrix(.138923 -.990303 .990233 .139424 10.3125 43.0516)"/><ellipse cx=".096354" cy=".096287" opacity=".3" rx=".096354" ry=".096287" transform="matrix(.138923 -.990303 .990233 .139424 8.81934 41.2196)"/><ellipse cx=".096354" cy=".096287" opacity=".3" rx=".096354" ry=".096287" transform="matrix(.138923 -.990303 .990233 .139424 12.624 38.1218)"/></g></g></svg>